<svg xmlns="http://www.w3.org/2000/svg" viewBox="0 0 64 64" id="compass"><circle cx="32" cy="32" r="30" fill="#4D4D4D"></circle><path fill="#3E3E3E" d="M30 51C18.329 51 8.121 45.629 2.531 37.608 5.159 51.495 17.349 62 32 62c16.569 0 30-13.431 30-30 0-1.535-.116-3.042-.339-4.515C59.414 40.784 46.098 51 30 51z"></path><circle cx="32" cy="32" r="25" fill="#FFF"></circle><path fill="#D43239" d="M28.316 28.316 46 18 35.684 35.684z"></path><path fill="#3EBBDD" d="M28.316 28.316 18 46l17.684-10.316z"></path><path fill="#4D4D4D" d="M31 15h2v2h-2zM31 47h2v2h-2zM15 31h2v2h-2zM47 31h2v2h-2z"></path><circle cx="32" cy="32" r="2" fill="#FFF"></circle></svg>