<svg xmlns="http://www.w3.org/2000/svg" fill-rule="evenodd" stroke-linejoin="round" stroke-miterlimit="2" clip-rule="evenodd" viewBox="0 0 500 500" id="message"><path fill="#28b140" d="M475,229.709C475,116.727 374.181,25 250,25C125.819,25 25,116.727 25,229.709C25,283.372 48.16,334.889 89.495,373.169L66.484,475L162.17,418.177C189.953,428.894 219.822,434.418 250,434.418C374.181,434.418 475,342.691 475,229.709Z"></path><path fill="#fff" d="M116.484,191.56C132.556,191.56 145.604,204.653 145.604,220.78C145.604,236.907 132.556,250 116.484,250C100.411,250 87.363,236.907 87.363,220.78C87.363,204.653 100.411,191.56 116.484,191.56ZM232.967,191.56C249.039,191.56 262.088,204.653 262.088,220.78C262.088,236.907 249.039,250 232.967,250C216.895,250 203.846,236.907 203.846,220.78C203.846,204.653 216.895,191.56 232.967,191.56ZM349.451,191.56C365.523,191.56 378.571,204.653 378.571,220.78C378.571,236.907 365.523,250 349.451,250C333.378,250 320.33,236.907 320.33,220.78C320.33,204.653 333.378,191.56 349.451,191.56Z" transform="translate(17.033 14.286)"></path></svg>